<svg id="svg" version="1.1" xmlns="http://www.w3.org/2000/svg" xmlns:xlink="http://www.w3.org/1999/xlink" width="400" height="305.15806988352745" viewBox="0, 0, 400,305.15806988352745"><g id="svgg"><path id="path0" d="M187.939 134.043 C 184.119 134.653,181.972 135.150,180.524 135.761 C 179.972 135.993,179.324 136.183,179.084 136.183 C 178.843 136.183,178.127 136.405,177.491 136.675 C 176.856 136.946,175.924 137.338,175.420 137.546 C 166.946 141.058,158.960 147.169,153.204 154.548 C 152.072 155.999,151.145 157.285,151.145 157.405 C 151.145 157.524,150.767 158.123,150.305 158.736 C 149.281 160.095,148.954 160.638,147.984 162.595 C 146.297 166.000,145.344 168.164,145.344 168.589 C 145.344 168.836,145.227 169.169,145.084 169.328 C 144.854 169.586,144.433 170.895,143.222 175.115 C 141.834 179.955,141.682 183.809,141.681 214.124 L 141.679 243.057 168.931 242.979 L 196.183 242.901 196.337 220.611 C 196.484 199.381,196.520 198.255,197.086 196.947 C 198.570 193.518,201.020 190.873,204.181 189.287 L 206.260 188.244 228.855 188.092 L 251.450 187.939 251.450 160.763 L 251.450 133.588 221.374 133.547 C 194.049 133.511,190.990 133.556,187.939 134.043 " stroke="none" fill="#05acfc" fill-rule="evenodd"></path><path id="path1" d="M196.489 64.728 C 195.832 65.009,141.985 118.792,141.985 119.167 C 141.985 119.290,166.615 119.356,196.718 119.314 L 251.450 119.237 251.528 92.247 C 251.585 72.560,251.513 65.145,251.262 64.842 C 250.863 64.361,197.605 64.250,196.489 64.728 " stroke="none" fill="#fcb405" fill-rule="evenodd"></path><path id="path2" d="M0.000 152.672 L 0.000 305.344 200.000 305.344 L 400.000 305.344 400.000 152.672 L 400.000 0.000 200.000 0.000 L 0.000 0.000 0.000 152.672 M251.542 64.183 C 251.822 64.463,251.908 71.083,251.908 92.116 L 251.908 119.683 251.221 119.849 C 249.060 120.370,141.534 119.839,141.431 119.307 C 141.327 118.768,195.314 64.423,196.336 64.038 C 197.334 63.661,251.162 63.803,251.542 64.183 M251.425 133.010 C 252.165 133.294,252.165 188.233,251.425 188.517 C 251.160 188.619,241.327 188.702,229.574 188.702 C 206.594 188.702,207.260 188.661,203.752 190.287 C 202.118 191.044,199.314 193.834,198.506 195.508 C 197.022 198.578,196.947 199.850,196.947 221.679 C 196.947 234.207,196.831 242.400,196.649 242.881 L 196.351 243.664 168.895 243.664 C 144.141 243.664,141.421 243.617,141.254 243.181 C 140.968 242.435,141.079 182.950,141.370 181.221 C 142.285 175.781,143.052 172.502,143.701 171.251 C 143.933 170.805,144.122 170.226,144.122 169.963 C 144.122 169.019,148.057 160.802,149.697 158.321 C 154.288 151.376,159.790 145.883,166.565 141.479 C 167.405 140.933,168.229 140.373,168.397 140.233 C 168.884 139.828,175.160 136.794,175.511 136.794 C 175.685 136.794,176.217 136.603,176.693 136.370 C 177.791 135.831,179.395 135.276,180.763 134.962 C 181.351 134.827,182.244 134.573,182.748 134.397 C 183.654 134.081,185.891 133.626,188.855 133.154 C 190.628 132.871,250.704 132.733,251.425 133.010 " stroke="none" fill="#fbfbfb" fill-rule="evenodd"></path><path id="path3" d="M188.855 133.154 C 185.891 133.626,183.654 134.081,182.748 134.397 C 182.244 134.573,181.351 134.827,180.763 134.962 C 179.395 135.276,177.791 135.831,176.693 136.370 C 176.217 136.603,175.685 136.794,175.511 136.794 C 175.160 136.794,168.884 139.828,168.397 140.233 C 168.229 140.373,167.405 140.933,166.565 141.479 C 157.833 147.155,151.331 154.438,146.897 163.511 C 144.696 168.015,144.122 169.349,144.122 169.963 C 144.122 170.226,143.933 170.805,143.701 171.251 C 143.052 172.502,142.285 175.781,141.370 181.221 C 141.079 182.950,140.968 242.435,141.254 243.181 C 141.421 243.617,144.141 243.664,168.895 243.664 L 196.351 243.664 196.649 242.881 C 196.831 242.400,196.947 234.207,196.947 221.679 C 196.947 199.850,197.022 198.578,198.506 195.508 C 199.314 193.834,202.118 191.044,203.752 190.287 C 207.260 188.661,206.594 188.702,229.574 188.702 C 241.327 188.702,251.160 188.619,251.425 188.517 C 252.165 188.233,252.165 133.294,251.425 133.010 C 250.704 132.733,190.628 132.871,188.855 133.154 M251.450 160.763 L 251.450 187.939 228.855 188.092 L 206.260 188.244 204.181 189.287 C 201.020 190.873,198.570 193.518,197.086 196.947 C 196.520 198.255,196.484 199.381,196.337 220.611 L 196.183 242.901 168.931 242.979 L 141.679 243.057 141.681 214.124 C 141.682 183.809,141.834 179.955,143.222 175.115 C 144.433 170.895,144.854 169.586,145.084 169.328 C 145.227 169.169,145.344 168.836,145.344 168.589 C 145.344 168.164,146.297 166.000,147.984 162.595 C 148.954 160.638,149.281 160.095,150.305 158.736 C 150.767 158.123,151.145 157.524,151.145 157.405 C 151.145 155.231,162.410 144.604,168.617 140.922 C 169.461 140.422,174.419 137.961,175.420 137.546 C 175.924 137.338,176.856 136.946,177.491 136.675 C 178.127 136.405,178.843 136.183,179.084 136.183 C 179.324 136.183,179.972 135.993,180.524 135.761 C 185.566 133.635,188.010 133.503,221.374 133.547 L 251.450 133.588 251.450 160.763 " stroke="none" fill="#95ddfc" fill-rule="evenodd"></path><path id="path4" d="M196.336 64.038 C 195.314 64.423,141.327 118.768,141.431 119.307 C 141.534 119.839,249.060 120.370,251.221 119.849 L 251.908 119.683 251.908 92.116 C 251.908 71.083,251.822 64.463,251.542 64.183 C 251.162 63.803,197.334 63.661,196.336 64.038 M251.262 64.842 C 251.513 65.145,251.585 72.560,251.528 92.247 L 251.450 119.237 196.718 119.314 C 166.615 119.356,141.985 119.290,141.985 119.167 C 141.985 118.792,195.832 65.009,196.489 64.728 C 197.605 64.250,250.863 64.361,251.262 64.842 " stroke="none" fill="#fcdd9b" fill-rule="evenodd"></path></g></svg>